<?xml version="1.0" encoding="utf-8"?>
<!-- Generator: Adobe Illustrator 24.1.2, SVG Export Plug-In . SVG Version: 6.00 Build 0)  -->
<svg version="1.1" id="Capa_1" xmlns="http://www.w3.org/2000/svg" xmlns:xlink="http://www.w3.org/1999/xlink" x="0px" y="0px"
	 viewBox="0 0 173 151" style="enable-background:new 0 0 173 151;" xml:space="preserve">
<style type="text/css">
	.st0{fill:#F2F3DB;}
</style>
<g>
	<path class="st0" d="M48.17,40.81v0.27c-1.12,0.58-2.13,2.34-2.13,3.79v19.64h-0.51L29.41,43.89v16.56c0,1.46,1.02,3.25,2.17,3.83
		v0.24H26.3v-0.24c1.15-0.58,2.17-2.37,2.17-3.83V42.88l-1.46-2.07h3.42l14.63,18.55V44.87c0-1.46-1.02-3.22-2.13-3.79v-0.27H48.17z
		"/>
	<path class="st0" d="M75.31,40.81v0.27c-1.08,0.58-1.99,1.09-1.99,3.79v11.68c0,4.71-3.35,8.16-8.13,8.16
		c-5.04,0-9.28-2.81-9.28-8.97V43.08c0-1.22-0.24-1.69-0.78-2v-0.27h4.2v0.27c-0.51,0.3-0.74,0.78-0.74,2v12.66
		c0,5.59,2.88,8.27,7.79,7.86c4.16-0.34,6-3.26,6-7.05V45.24c0-1.86-0.88-3.93-2.54-4.16v-0.27H75.31z"/>
	<path class="st0" d="M97.25,59.71l-1.45,4.8H82.06v-0.24c0.51-0.3,0.74-0.81,0.74-2v-19.2c0-1.18-0.24-1.69-0.74-2v-0.27h12.66
		l1.42,4.46l-0.17,0.14c-1.56-1.76-4.36-3.62-8.12-3.62h-2.37v8.93l8.53-0.39v1.73l-8.53-0.36v11.88h2.74
		c3.72,0,7.24-1.93,8.83-3.99L97.25,59.71z"/>
	<path class="st0" d="M118.62,47.31l-5.08,14.29l1.12,2.91h-2.67c0,0-5.62-14.56-6.64-17.2c-1.02-2.61-2.27-4.71-3.52-6.23v-0.27
		h5.18v0.27c-0.85,0.88-0.58,2.07,0.37,4.54l5.5,14.94l4.77-13.24c1.08-3.05,1.25-4.71-0.2-6.23v-0.27h4.73v0.27
		C120.72,42.6,119.74,44.16,118.62,47.31"/>
	<path class="st0" d="M148.45,49.81c-1.83-5.96-6.71-9.91-12.36-8.18c-5.65,1.73-7.55,7.74-5.72,13.7
		c1.83,5.99,6.84,9.76,12.49,8.04C148.51,61.64,150.27,55.81,148.45,49.81 M151.7,52.59c0,6.67-5.59,12.12-12.29,12.12
		c-6.7,0-12.29-5.45-12.29-12.12c0-6.7,5.59-12.12,12.29-12.12C146.11,40.47,151.7,45.89,151.7,52.59"/>
	<path class="st0" d="M50.29,78.78c0-3.99-2.34-5.96-8.43-5.96H40.2v11.9h1.66C47.95,84.71,50.29,82.74,50.29,78.78 M52.96,78.78
		c0,4.77-4.44,6.91-11.11,6.91H40.2v7.62c0,1.18,0.24,1.69,0.74,2v0.24h-4.2V95.3c0.54-0.3,0.78-0.81,0.78-2v-19.2
		c0-1.22-0.24-1.69-0.78-2v-0.27h5.11C48.53,71.84,52.96,73.97,52.96,78.78"/>
	<path class="st0" d="M73.39,90.74l-0.75,4.8H58.53V95.3c0.54-0.3,0.78-0.81,0.78-2v-19.2c0-1.22-0.24-1.69-0.78-2v-0.27h4.2v0.27
		c-0.51,0.3-0.74,0.78-0.74,2V94.6h3.08c3.76,0,6.54-1.93,8.13-3.99L73.39,90.74z"/>
	<path class="st0" d="M89.82,85.91l-3.85-10.39l-3.43,10.41L89.82,85.91z M97.24,95.54h-5.21V95.3c0.88-0.88,0.61-2.06-0.34-4.54
		l-1.66-4.3h-7.69l-0.91,2.57c-1.08,3.08-1.25,4.74,0.17,6.26v0.24h-4.7V95.3c1.46-1.52,2.44-3.08,3.56-6.26l5.08-14.29l-1.12-2.91
		h2.68l6.6,17.2c1.39,3.39,2.27,4.74,3.56,6.26V95.54z"/>
	<path class="st0" d="M117.94,90.74l-0.75,4.8h-13.98h-2.81l13.49-22.72h-4.93c-3.72,0-5.86,2.23-7.41,3.96l-0.17-0.1l1.08-4.83
		h14.76L103.35,94.6h6.26c3.72,0,6.54-1.93,8.13-3.99L117.94,90.74z"/>
	<path class="st0" d="M133.83,85.91l-3.85-10.39l-3.43,10.41L133.83,85.91z M141.25,95.54h-5.21V95.3c0.88-0.88,0.61-2.06-0.34-4.54
		l-1.66-4.3h-7.69l-0.91,2.57c-1.08,3.08-1.25,4.74,0.17,6.26v0.24h-4.7V95.3c1.46-1.52,2.44-3.08,3.55-6.26l5.08-14.29l-1.12-2.91
		h2.67l6.6,17.2c1.39,3.39,2.27,4.74,3.56,6.26V95.54z"/>
	<path class="st0" d="M53.05,113.35c-0.31-0.31-0.55-0.59-0.76-0.84c0.02,0.27,0.04,0.76,0.04,1.23v3.85H51.4v-7.23h0.02l3.8,4.02
		l3.8-4.02h0.02v7.23h-0.93v-3.85c0-0.46,0.02-0.96,0.04-1.23c-0.21,0.25-0.46,0.53-0.76,0.84l-2.17,2.23L53.05,113.35z"/>
	<polygon class="st0" points="64.25,117.59 64.25,110.47 69.42,110.47 69.42,111.25 65.21,111.25 65.21,113.59 68.78,113.59 
		68.78,114.37 65.21,114.37 65.21,116.8 69.6,116.8 69.6,117.59 	"/>
	<path class="st0" d="M76.05,113.33c-0.34-0.32-0.73-0.66-0.98-0.89c0,0.25,0.01,0.73,0.01,1.03v4.12h-0.96v-7.23h0.02l4.7,4.38
		c0.34,0.32,0.78,0.71,0.97,0.89c-0.01-0.27-0.01-0.66-0.01-1.03v-4.12h0.95v7.23h-0.01L76.05,113.33z"/>
	<path class="st0" d="M86.93,111.25v5.55h1.47c2.18,0,3.5-1.04,3.5-2.78c0-1.74-1.33-2.78-3.56-2.78H86.93z M85.97,117.59v-7.11
		h2.38c2.83,0,4.52,1.33,4.52,3.56c0,2.22-1.67,3.56-4.46,3.56H85.97z"/>
	<path class="st0" d="M101.18,116.85c2,0,3.37-1.15,3.37-2.83c0-1.68-1.37-2.83-3.37-2.83c-2.02,0-3.39,1.15-3.39,2.83
		C97.79,115.71,99.16,116.85,101.18,116.85 M101.18,110.35c2.58,0,4.35,1.49,4.35,3.68c0,2.18-1.77,3.68-4.35,3.68
		c-2.59,0-4.36-1.49-4.36-3.68C96.82,111.85,98.59,110.35,101.18,110.35"/>
	<polygon class="st0" points="113.8,111.25 109.47,111.25 109.47,110.47 115.39,110.47 115.39,110.48 110.78,116.81 115.42,116.81 
		115.42,117.59 109.19,117.59 109.19,117.58 	"/>
	<path class="st0" d="M124.35,115.22c-0.53-1-1.15-2.22-1.65-3.24c-0.5,1.02-1.13,2.24-1.66,3.24H124.35z M122.69,110.35h0.02
		l3.89,7.23h-1.01l-0.9-1.6h-4.01l-0.88,1.6h-1.01L122.69,110.35z"/>
	<polygon class="st0" points="71.48,29.44 71.48,26.23 66.96,26.23 66.96,29.44 66,29.44 66,22.32 66.96,22.32 66.96,25.45 
		71.48,25.45 71.48,22.32 72.43,22.32 72.43,29.44 	"/>
	<path class="st0" d="M81.34,28.71c2,0,3.37-1.15,3.37-2.83c0-1.68-1.37-2.83-3.37-2.83c-2.02,0-3.39,1.15-3.39,2.83
		C77.96,27.56,79.33,28.71,81.34,28.71 M81.34,22.21c2.58,0,4.35,1.49,4.35,3.68c0,2.18-1.77,3.68-4.35,3.68
		c-2.59,0-4.36-1.49-4.36-3.68C76.99,23.7,78.76,22.21,81.34,22.21"/>
	<polygon class="st0" points="92.7,23.11 92.7,29.44 91.75,29.44 91.75,23.11 89.13,23.11 89.13,22.32 95.33,22.32 95.33,23.11 	"/>
	<polygon class="st0" points="99.52,29.44 99.52,22.32 104.69,22.32 104.69,23.11 100.48,23.11 100.48,25.45 104.05,25.45 
		104.05,26.23 100.48,26.23 100.48,28.66 104.87,28.66 104.87,29.44 	"/>
	<polygon class="st0" points="109.4,29.44 109.4,22.32 110.35,22.32 110.35,28.66 114.1,28.66 114.1,29.44 	"/>
	<polygon class="st0" points="125.87,26.37 145.58,25.88 125.87,25.39 	"/>
	<polygon class="st0" points="32.42,25.88 52.13,26.37 52.13,25.39 	"/>
	<path class="st0" d="M66.57,129.3c14.94-0.67,29.92-0.68,44.86,0C96.49,129.98,81.51,129.97,66.57,129.3"/>
	
		<rect x="87.94" y="128.24" transform="matrix(0.7073 -0.7069 0.7069 0.7073 -65.3505 100.7528)" class="st0" width="2.12" height="2.12"/>
</g>
</svg>
